<mxfile host="app.diagrams.net" modified="2023-03-24T23:48:06.124Z" agent="Mozilla/5.0 (Macintosh; Intel Mac OS X 10_15_7) AppleWebKit/605.1.15 (KHTML, like Gecko) Version/15.3 Safari/605.1.15" etag="rDyVMsTWTHzjkMOhow6v" version="21.1.0" type="github">
  <diagram name="Page-1" id="BQsuyhdVGD7qNmOjAi54">
    <mxGraphModel dx="873" dy="559" grid="1" gridSize="10" guides="1" tooltips="1" connect="1" arrows="1" fold="1" page="1" pageScale="1" pageWidth="850" pageHeight="1100" math="0" shadow="0">
      <root>
        <mxCell id="0" />
        <mxCell id="1" parent="0" />
        <mxCell id="zrZJsxTTZ5WPUm2CJSqn-1" value="Customer" style="shape=umlActor;verticalLabelPosition=bottom;verticalAlign=top;html=1;outlineConnect=0;" vertex="1" parent="1">
          <mxGeometry x="40" y="40" width="30" height="60" as="geometry" />
        </mxCell>
        <mxCell id="zrZJsxTTZ5WPUm2CJSqn-4" value="" style="endArrow=classic;html=1;rounded=0;" edge="1" parent="1">
          <mxGeometry width="50" height="50" relative="1" as="geometry">
            <mxPoint x="30" y="470" as="sourcePoint" />
            <mxPoint x="50" y="130" as="targetPoint" />
          </mxGeometry>
        </mxCell>
        <mxCell id="zrZJsxTTZ5WPUm2CJSqn-5" value="" style="endArrow=classic;html=1;rounded=0;" edge="1" parent="1">
          <mxGeometry width="50" height="50" relative="1" as="geometry">
            <mxPoint x="80" y="200" as="sourcePoint" />
            <mxPoint x="60" y="130" as="targetPoint" />
          </mxGeometry>
        </mxCell>
        <mxCell id="zrZJsxTTZ5WPUm2CJSqn-6" value="Guest user" style="shape=umlActor;verticalLabelPosition=bottom;verticalAlign=top;html=1;outlineConnect=0;" vertex="1" parent="1">
          <mxGeometry x="20" y="480" width="30" height="60" as="geometry" />
        </mxCell>
        <mxCell id="zrZJsxTTZ5WPUm2CJSqn-7" value="Logged-in user" style="shape=umlActor;verticalLabelPosition=bottom;verticalAlign=top;html=1;outlineConnect=0;" vertex="1" parent="1">
          <mxGeometry x="70" y="200" width="30" height="60" as="geometry" />
        </mxCell>
        <mxCell id="zrZJsxTTZ5WPUm2CJSqn-8" value="" style="endArrow=none;html=1;rounded=0;" edge="1" parent="1">
          <mxGeometry width="50" height="50" relative="1" as="geometry">
            <mxPoint x="100" y="55" as="sourcePoint" />
            <mxPoint x="180" y="55" as="targetPoint" />
          </mxGeometry>
        </mxCell>
        <mxCell id="zrZJsxTTZ5WPUm2CJSqn-10" value="" style="endArrow=none;html=1;rounded=0;" edge="1" parent="1" target="zrZJsxTTZ5WPUm2CJSqn-11">
          <mxGeometry width="50" height="50" relative="1" as="geometry">
            <mxPoint x="100" y="60" as="sourcePoint" />
            <mxPoint x="170" y="100" as="targetPoint" />
          </mxGeometry>
        </mxCell>
        <mxCell id="zrZJsxTTZ5WPUm2CJSqn-11" value="view recommendation tab" style="ellipse;whiteSpace=wrap;html=1;" vertex="1" parent="1">
          <mxGeometry x="177.5" y="90" width="95" height="50" as="geometry" />
        </mxCell>
        <mxCell id="zrZJsxTTZ5WPUm2CJSqn-12" value="" style="endArrow=none;html=1;rounded=0;entryX=0;entryY=0.5;entryDx=0;entryDy=0;" edge="1" parent="1" target="zrZJsxTTZ5WPUm2CJSqn-17">
          <mxGeometry width="50" height="50" relative="1" as="geometry">
            <mxPoint x="120" y="200" as="sourcePoint" />
            <mxPoint x="170" y="170" as="targetPoint" />
          </mxGeometry>
        </mxCell>
        <mxCell id="zrZJsxTTZ5WPUm2CJSqn-14" value="view item" style="ellipse;whiteSpace=wrap;html=1;" vertex="1" parent="1">
          <mxGeometry x="177.5" y="30" width="95" height="50" as="geometry" />
        </mxCell>
        <mxCell id="zrZJsxTTZ5WPUm2CJSqn-17" value="access profile" style="ellipse;whiteSpace=wrap;html=1;" vertex="1" parent="1">
          <mxGeometry x="173.75" y="140" width="102.5" height="50" as="geometry" />
        </mxCell>
        <mxCell id="zrZJsxTTZ5WPUm2CJSqn-18" value="" style="endArrow=none;html=1;rounded=0;entryX=0.005;entryY=0.28;entryDx=0;entryDy=0;entryPerimeter=0;" edge="1" parent="1" target="zrZJsxTTZ5WPUm2CJSqn-19">
          <mxGeometry width="50" height="50" relative="1" as="geometry">
            <mxPoint x="120" y="210" as="sourcePoint" />
            <mxPoint x="180" y="210" as="targetPoint" />
          </mxGeometry>
        </mxCell>
        <mxCell id="zrZJsxTTZ5WPUm2CJSqn-19" value="personalize recommendations" style="ellipse;whiteSpace=wrap;html=1;" vertex="1" parent="1">
          <mxGeometry x="177.5" y="200" width="102.5" height="50" as="geometry" />
        </mxCell>
        <mxCell id="zrZJsxTTZ5WPUm2CJSqn-20" value="" style="endArrow=none;html=1;rounded=0;exitX=0.047;exitY=0.24;exitDx=0;exitDy=0;exitPerimeter=0;" edge="1" parent="1" source="zrZJsxTTZ5WPUm2CJSqn-22">
          <mxGeometry width="50" height="50" relative="1" as="geometry">
            <mxPoint x="170" y="250" as="sourcePoint" />
            <mxPoint x="120" y="220" as="targetPoint" />
          </mxGeometry>
        </mxCell>
        <mxCell id="zrZJsxTTZ5WPUm2CJSqn-22" value="add to wishlist" style="ellipse;whiteSpace=wrap;html=1;" vertex="1" parent="1">
          <mxGeometry x="177.5" y="260" width="95" height="50" as="geometry" />
        </mxCell>
        <mxCell id="zrZJsxTTZ5WPUm2CJSqn-23" value="" style="endArrow=none;html=1;rounded=0;exitX=0.068;exitY=0.2;exitDx=0;exitDy=0;exitPerimeter=0;" edge="1" parent="1" source="zrZJsxTTZ5WPUm2CJSqn-24">
          <mxGeometry width="50" height="50" relative="1" as="geometry">
            <mxPoint x="180" y="300" as="sourcePoint" />
            <mxPoint x="120" y="230" as="targetPoint" />
          </mxGeometry>
        </mxCell>
        <mxCell id="zrZJsxTTZ5WPUm2CJSqn-24" value="chat with jeweler" style="ellipse;whiteSpace=wrap;html=1;" vertex="1" parent="1">
          <mxGeometry x="177.5" y="320" width="95" height="50" as="geometry" />
        </mxCell>
        <mxCell id="zrZJsxTTZ5WPUm2CJSqn-28" value="" style="endArrow=none;html=1;rounded=0;exitX=0.047;exitY=0.3;exitDx=0;exitDy=0;exitPerimeter=0;" edge="1" parent="1" source="zrZJsxTTZ5WPUm2CJSqn-29">
          <mxGeometry width="50" height="50" relative="1" as="geometry">
            <mxPoint x="180" y="350" as="sourcePoint" />
            <mxPoint x="120" y="250" as="targetPoint" />
          </mxGeometry>
        </mxCell>
        <mxCell id="zrZJsxTTZ5WPUm2CJSqn-29" value="add to cart" style="ellipse;whiteSpace=wrap;html=1;" vertex="1" parent="1">
          <mxGeometry x="177.5" y="380" width="95" height="50" as="geometry" />
        </mxCell>
        <mxCell id="zrZJsxTTZ5WPUm2CJSqn-32" value="extend" style="endArrow=classic;html=1;rounded=0;dashed=1;entryX=0.949;entryY=0.16;entryDx=0;entryDy=0;entryPerimeter=0;" edge="1" parent="1" target="zrZJsxTTZ5WPUm2CJSqn-17">
          <mxGeometry relative="1" as="geometry">
            <mxPoint x="360" y="148" as="sourcePoint" />
            <mxPoint x="280" y="150" as="targetPoint" />
          </mxGeometry>
        </mxCell>
        <mxCell id="zrZJsxTTZ5WPUm2CJSqn-34" value="extend" style="endArrow=classic;html=1;rounded=0;dashed=1;" edge="1" parent="1">
          <mxGeometry relative="1" as="geometry">
            <mxPoint x="356.25" y="410" as="sourcePoint" />
            <mxPoint x="276.25" y="410" as="targetPoint" />
          </mxGeometry>
        </mxCell>
        <mxCell id="zrZJsxTTZ5WPUm2CJSqn-35" value="extend" style="endArrow=classic;html=1;rounded=0;dashed=1;" edge="1" parent="1">
          <mxGeometry relative="1" as="geometry">
            <mxPoint x="340" y="269.5" as="sourcePoint" />
            <mxPoint x="270" y="270" as="targetPoint" />
          </mxGeometry>
        </mxCell>
        <mxCell id="zrZJsxTTZ5WPUm2CJSqn-36" value="change personal info" style="ellipse;whiteSpace=wrap;html=1;" vertex="1" parent="1">
          <mxGeometry x="350" y="120" width="95" height="50" as="geometry" />
        </mxCell>
        <mxCell id="zrZJsxTTZ5WPUm2CJSqn-37" value="add to cart" style="ellipse;whiteSpace=wrap;html=1;" vertex="1" parent="1">
          <mxGeometry x="340" y="250" width="90" height="30" as="geometry" />
        </mxCell>
        <mxCell id="zrZJsxTTZ5WPUm2CJSqn-38" value="pay" style="ellipse;whiteSpace=wrap;html=1;" vertex="1" parent="1">
          <mxGeometry x="350" y="390" width="95" height="50" as="geometry" />
        </mxCell>
        <mxCell id="zrZJsxTTZ5WPUm2CJSqn-44" value="" style="endArrow=classic;html=1;rounded=0;" edge="1" parent="1">
          <mxGeometry width="50" height="50" relative="1" as="geometry">
            <mxPoint x="500" y="370" as="sourcePoint" />
            <mxPoint x="450" y="400" as="targetPoint" />
          </mxGeometry>
        </mxCell>
        <mxCell id="zrZJsxTTZ5WPUm2CJSqn-45" value="" style="endArrow=classic;html=1;rounded=0;" edge="1" parent="1">
          <mxGeometry width="50" height="50" relative="1" as="geometry">
            <mxPoint x="500" y="430" as="sourcePoint" />
            <mxPoint x="450" y="410" as="targetPoint" />
          </mxGeometry>
        </mxCell>
        <mxCell id="zrZJsxTTZ5WPUm2CJSqn-46" value="pay by card" style="ellipse;whiteSpace=wrap;html=1;" vertex="1" parent="1">
          <mxGeometry x="500" y="410" width="95" height="50" as="geometry" />
        </mxCell>
        <mxCell id="zrZJsxTTZ5WPUm2CJSqn-47" value="pay by cash" style="ellipse;whiteSpace=wrap;html=1;" vertex="1" parent="1">
          <mxGeometry x="500" y="340" width="95" height="50" as="geometry" />
        </mxCell>
        <mxCell id="zrZJsxTTZ5WPUm2CJSqn-48" value="" style="endArrow=none;html=1;rounded=0;exitX=1;exitY=0.5;exitDx=0;exitDy=0;" edge="1" parent="1" source="zrZJsxTTZ5WPUm2CJSqn-46">
          <mxGeometry width="50" height="50" relative="1" as="geometry">
            <mxPoint x="500" y="340" as="sourcePoint" />
            <mxPoint x="700" y="435" as="targetPoint" />
          </mxGeometry>
        </mxCell>
        <mxCell id="zrZJsxTTZ5WPUm2CJSqn-50" value="Card verifier (bank)" style="text;align=center;html=1;verticalAlign=middle;whiteSpace=wrap;rounded=0;strokeColor=default;" vertex="1" parent="1">
          <mxGeometry x="700" y="405" width="130" height="60" as="geometry" />
        </mxCell>
        <mxCell id="zrZJsxTTZ5WPUm2CJSqn-51" value="Login" style="ellipse;whiteSpace=wrap;html=1;" vertex="1" parent="1">
          <mxGeometry x="595" y="250" width="115" height="60" as="geometry" />
        </mxCell>
        <mxCell id="zrZJsxTTZ5WPUm2CJSqn-52" value="" style="endArrow=none;html=1;rounded=0;" edge="1" parent="1" target="zrZJsxTTZ5WPUm2CJSqn-53">
          <mxGeometry width="50" height="50" relative="1" as="geometry">
            <mxPoint x="80" y="490" as="sourcePoint" />
            <mxPoint x="180" y="490" as="targetPoint" />
          </mxGeometry>
        </mxCell>
        <mxCell id="zrZJsxTTZ5WPUm2CJSqn-53" value="add to temporary wishlist&amp;nbsp;" style="ellipse;whiteSpace=wrap;html=1;" vertex="1" parent="1">
          <mxGeometry x="174.38" y="465" width="108.75" height="50" as="geometry" />
        </mxCell>
        <mxCell id="zrZJsxTTZ5WPUm2CJSqn-54" value="" style="endArrow=none;html=1;rounded=0;" edge="1" parent="1">
          <mxGeometry width="50" height="50" relative="1" as="geometry">
            <mxPoint x="80" y="500" as="sourcePoint" />
            <mxPoint x="180" y="550" as="targetPoint" />
          </mxGeometry>
        </mxCell>
        <mxCell id="zrZJsxTTZ5WPUm2CJSqn-55" value="live chat customer service&amp;nbsp;" style="ellipse;whiteSpace=wrap;html=1;" vertex="1" parent="1">
          <mxGeometry x="177.5" y="525" width="108.75" height="50" as="geometry" />
        </mxCell>
        <mxCell id="zrZJsxTTZ5WPUm2CJSqn-56" value="include" style="endArrow=classic;html=1;rounded=0;dashed=1;entryX=0.968;entryY=0.66;entryDx=0;entryDy=0;entryPerimeter=0;" edge="1" parent="1" source="zrZJsxTTZ5WPUm2CJSqn-51" target="zrZJsxTTZ5WPUm2CJSqn-17">
          <mxGeometry relative="1" as="geometry">
            <mxPoint x="400" y="350" as="sourcePoint" />
            <mxPoint x="290" y="210" as="targetPoint" />
          </mxGeometry>
        </mxCell>
        <mxCell id="zrZJsxTTZ5WPUm2CJSqn-58" value="include" style="endArrow=classic;html=1;rounded=0;dashed=1;entryX=1;entryY=0.5;entryDx=0;entryDy=0;exitX=0;exitY=0.367;exitDx=0;exitDy=0;exitPerimeter=0;" edge="1" parent="1" source="zrZJsxTTZ5WPUm2CJSqn-51" target="zrZJsxTTZ5WPUm2CJSqn-19">
          <mxGeometry relative="1" as="geometry">
            <mxPoint x="612" y="276" as="sourcePoint" />
            <mxPoint x="283" y="183" as="targetPoint" />
          </mxGeometry>
        </mxCell>
        <mxCell id="zrZJsxTTZ5WPUm2CJSqn-59" value="include" style="endArrow=classic;html=1;rounded=0;dashed=1;entryX=1.005;entryY=0.72;entryDx=0;entryDy=0;entryPerimeter=0;exitX=0;exitY=0.5;exitDx=0;exitDy=0;" edge="1" parent="1" source="zrZJsxTTZ5WPUm2CJSqn-51" target="zrZJsxTTZ5WPUm2CJSqn-22">
          <mxGeometry relative="1" as="geometry">
            <mxPoint x="622" y="286" as="sourcePoint" />
            <mxPoint x="293" y="193" as="targetPoint" />
          </mxGeometry>
        </mxCell>
        <mxCell id="zrZJsxTTZ5WPUm2CJSqn-60" value="include" style="endArrow=classic;html=1;rounded=0;dashed=1;entryX=1;entryY=0.5;entryDx=0;entryDy=0;exitX=0.017;exitY=0.617;exitDx=0;exitDy=0;exitPerimeter=0;" edge="1" parent="1" source="zrZJsxTTZ5WPUm2CJSqn-51" target="zrZJsxTTZ5WPUm2CJSqn-24">
          <mxGeometry relative="1" as="geometry">
            <mxPoint x="632" y="296" as="sourcePoint" />
            <mxPoint x="303" y="203" as="targetPoint" />
          </mxGeometry>
        </mxCell>
        <mxCell id="zrZJsxTTZ5WPUm2CJSqn-61" value="include" style="endArrow=classic;html=1;rounded=0;dashed=1;entryX=0.995;entryY=0.28;entryDx=0;entryDy=0;entryPerimeter=0;exitX=0.07;exitY=0.8;exitDx=0;exitDy=0;exitPerimeter=0;" edge="1" parent="1" source="zrZJsxTTZ5WPUm2CJSqn-51" target="zrZJsxTTZ5WPUm2CJSqn-29">
          <mxGeometry relative="1" as="geometry">
            <mxPoint x="642" y="306" as="sourcePoint" />
            <mxPoint x="313" y="213" as="targetPoint" />
          </mxGeometry>
        </mxCell>
      </root>
    </mxGraphModel>
  </diagram>
</mxfile>
